<svg width="502" height="526" viewBox="0 0 502 526" fill="none" xmlns="http://www.w3.org/2000/svg">
<path d="M0 262.289C0 234.675 22.3858 212.289 50 212.289H450C477.614 212.289 500 234.675 500 262.289C500 289.904 477.614 312.289 450 312.289H50C22.3858 312.289 0 289.904 0 262.289Z" fill="white"/>
<path d="M204.355 14.6447C223.882 -4.88155 255.54 -4.88155 275.066 14.6447L487.198 226.777C506.724 246.303 506.724 277.961 487.198 297.487C467.672 317.014 436.014 317.014 416.487 297.487L204.355 85.3553C184.829 65.8291 184.829 34.1709 204.355 14.6447Z" fill="white"/>
<path d="M204.355 510.487C184.829 490.961 184.829 459.303 204.355 439.777L416.487 227.645C436.014 208.118 467.672 208.118 487.198 227.645C506.724 247.171 506.724 278.829 487.198 298.355L275.066 510.487C255.54 530.014 223.882 530.014 204.355 510.487Z" fill="white"/>
</svg>
