<svg width="526" height="637" viewBox="0 0 526 637" fill="none" xmlns="http://www.w3.org/2000/svg">
<rect x="13" y="537" width="500" height="100" rx="50" fill="white"/>
<path d="M262.843 0C290.457 0 312.843 22.3858 312.843 50L312.843 450C312.843 477.614 290.457 500 262.843 500C235.229 500 212.843 477.614 212.843 450L212.843 50C212.843 22.3858 235.229 0 262.843 0Z" fill="white"/>
<path d="M510.487 204.355C530.014 223.882 530.014 255.54 510.487 275.066L298.355 487.198C278.829 506.724 247.171 506.724 227.645 487.198C208.118 467.672 208.118 436.014 227.645 416.487L439.777 204.355C459.303 184.829 490.961 184.829 510.487 204.355Z" fill="white"/>
<path d="M14.6447 204.355C34.1709 184.829 65.8292 184.829 85.3554 204.355L297.487 416.487C317.014 436.014 317.014 467.672 297.487 487.198C277.961 506.724 246.303 506.724 226.777 487.198L14.6447 275.066C-4.8815 255.54 -4.8815 223.882 14.6447 204.355Z" fill="white"/>
<path d="M262.843 0C290.457 0 312.843 22.3858 312.843 50L312.843 450C312.843 477.614 290.457 500 262.843 500C235.229 500 212.843 477.614 212.843 450L212.843 50C212.843 22.3858 235.229 0 262.843 0Z" fill="white"/>
</svg>
